<svg width="400" height="400" xmlns="http://www.w3.org/2000/svg" preserveAspectRatio="xMidYMid meet">
 <metadata>Created by potrace 1.15, written by Peter Selinger 2001-2017</metadata>

 <g>
  <title>background</title>
  <rect fill="none" id="canvas_background" height="402" width="402" y="-1" x="-1"/>
 </g>
 <g>
  <title>Layer 1</title>
  <g id="svg_1" fill="#000000">
   <path stroke="null" id="svg_2" d="m216.117392,31.625506c23.431861,2.524985 47.671717,11.311933 67.770597,24.643853c12.321927,8.180951 32.723805,28.481831 40.39976,40.29876c11.008935,16.664901 18.684889,34.945792 22.825864,54.539676c2.827983,13.230921 2.524985,49.287707 -0.403998,62.821626c-2.928983,12.927923 -6.564961,23.431861 -11.917929,34.945792c-5.04997,10.705936 -16.8669,29.289826 -19.189886,30.097821c-4.443974,1.71699 -37.975774,-3.837977 -55.852668,-9.291945c-11.81693,-3.534979 -32.01681,-12.826924 -37.369778,-17.169898c-0.201999,-0.100999 3.231981,-4.746972 7.675954,-10.402938c22.522866,-28.178832 39.591765,-56.559664 46.863721,-78.173535c6.362962,-18.886888 4.847971,-37.470777 -4.645972,-56.761662c-13.735918,-27.774835 -40.197761,-43.934739 -71.911572,-43.934739c-41.106756,0 -74.03256,29.592824 -79.183529,71.204577c-1.817989,14.543914 1.413992,27.875834 12.119928,49.489706c8.584949,17.371897 26.764841,44.742734 41.308754,62.013631l4.544973,5.453968l-2.524985,2.019988c-3.534979,2.928983 -23.330861,12.321927 -32.319808,15.250909c-15.452908,5.150969 -45.550729,10.705936 -58.074655,10.705936c-4.544973,0 -20.906876,-28.077833 -27.168838,-46.863721c-11.917929,-35.652788 -10.705936,-76.355546 3.33298,-109.988346c23.229862,-55.650669 78.678532,-92.212452 138.571176,-91.404456c6.362962,0.100999 13.230921,0.302998 15.14991,0.504997z"/>
   <path stroke="null" id="svg_3" d="m209.956429,94.649131c16.7659,3.33298 31.410813,17.371897 35.955786,34.743793c2.827983,10.907935 1.61599,19.189886 -5.04997,34.945792c-8.180951,19.391885 -33.733799,58.680651 -39.793763,61.003637c-5.251969,2.120987 -36.864781,-46.964721 -44.540735,-69.184589c-1.211993,-3.635978 -2.524985,-9.796942 -2.726984,-13.634919c-2.120987,-29.693823 26.158844,-53.73168 56.155666,-47.873715z"/>
   <path stroke="null" id="svg_4" d="m203.492467,274.933059c4.443974,3.43398 20.09888,11.71593 30.29982,16.058905c14.442914,6.160963 28.58283,10.301939 44.641735,13.028923l13.331921,2.221987l-8.685948,7.473956c-12.018929,10.402938 -31.511813,24.744853 -45.853727,33.935798c-21.007875,13.230921 -36.258784,21.81587 -37.874775,21.209874c-4.039976,-1.514991 -29.794823,-17.068899 -43.833739,-26.461843c-14.846912,-9.897941 -39.288766,-28.58283 -44.237737,-33.935798l-2.322986,-2.524985l5.857965,-0.706996c24.744853,-2.928983 57.064661,-14.341915 78.375534,-27.774835c7.271957,-4.645972 7.473956,-4.645972 10.301939,-2.524985z"/>
  </g>
 </g>
</svg>