<svg width="580" height="720" xmlns="http://www.w3.org/2000/svg">
 <!-- Created with Method Draw - http://github.com/duopixel/Method-Draw/ -->
 <g>
  <title>background</title>
  <rect x="-1" y="-1" width="582" height="722" id="canvas_background" fill="none"/>
  <g id="canvasGrid" display="none">
   <rect id="svg_1" width="100%" height="100%" x="0" y="0" stroke-width="0" fill="url(#gridpattern)"/>
  </g>
 </g>
 <g>
  <title>Layer 1</title>
  <metadata id="svg_44">image/svg+xml</metadata>
  <defs>
   <clipPath clipPathUnits="userSpaceOnUse" id="svg_37">
    <path d="m3219641.85857,-1100310.189376l7824.543,0l0,-3259.811l-7824.543,0l0,3259.811z" id="svg_43"/>
   </clipPath>
   <clipPath clipPathUnits="userSpaceOnUse" id="svg_30">
    <path d="m3219641.85857,-1100310.189376l7824.543,0l0,-3259.811l-7824.543,0l0,3259.811z" id="svg_42"/>
   </clipPath>
  </defs>
  <defs>
   <rect height="8" width="8" id="svg_80" fill="#60278e"/>
   <style type="text/css">@import url('https://fonts.googleapis.com/css?family=Ubuntu');</style>
  </defs>
  <!-- Created with Method Draw - http://github.com/duopixel/Method-Draw/ -->
  <metadata id="svg_348">image/svg+xml</metadata>
  <defs>
   <clipPath clipPathUnits="userSpaceOnUse" id="svg_277">
    <path d="m3632378.027099,-2464237.511972l7824.543,0l0,-3259.811l-7824.543,0l0,3259.811z" id="svg_347" stroke="null"/>
   </clipPath>
   <clipPath clipPathUnits="userSpaceOnUse" id="svg_270">
    <path d="m3632378.027099,-2464237.511972l7824.543,0l0,-3259.811l-7824.543,0l0,3259.811z" id="svg_346" stroke="null"/>
   </clipPath>
  </defs>
  <defs>
   <rect height="8" width="8" id="svg_345" fill="#60278e" stroke="null"/>
   <style type="text/css">@import url('https://fonts.googleapis.com/css?family=Ubuntu');</style>
  </defs>
  <!-- Created with Method Draw - http://github.com/duopixel/Method-Draw/ -->
  <!-- Created with Method Draw - http://github.com/duopixel/Method-Draw/ -->
  <!-- Created with Method Draw - http://github.com/duopixel/Method-Draw/ -->
  <!-- Created with Method Draw - http://github.com/duopixel/Method-Draw/ -->
  <path fill="#612688" stroke-width="1.5" stroke-opacity="null" d="m15363.658849,45686.730214l678.877997,-2.68727l-481.025481,-1316.773683l-196.172404,0c-0.56004,439.820311 -1.120081,879.640642 -1.680111,1319.460953l-0.000001,0z" id="svg_11" stroke="null"/>
  <path fill="#612688" stroke-width="1.5" stroke-opacity="null" d="m56157.511817,63180.324785l1082.500131,-464.559583l-1661.056253,-1777.059205l-313.331799,133.001458c297.295965,702.872435 594.591941,1405.744902 891.887922,2108.61733l-0.000002,0.000001z" id="svg_12" stroke="null"/>
  <g transform="matrix(-3.1659452724407324,0,0,-3.317818488013281,-12035.439974979283,-43936.4652638597) " id="svg_266" stroke="null">
   <g id="svg_267" transform="matrix(-0.01047510272828746,0,0,0.01047510272828746,34215.066505369636,12415.432871293639) " stroke="null">
    <g id="svg_275" stroke="null">
     <g id="svg_276" clip-path="url(#svg_277)" stroke="null">
      <g id="svg_280" stroke="null">
       <path fill="#ffffff" fill-rule="nonzero" d="m3639270.418699,-2466432.238982l0,852.99099l631.641,0l0,571.734l-631.641,0l0,770.002l-687.003,-108.81199l0,-2095.136c0,-156.766 14.554,-299.7 43.804,-428.801c29.176,-129.101 80.686,-239.039 154.459,-329.669c73.772,-90.703 172.11,-161.377 295.09,-212.096c122.904,-50.718 278.158,-76.077 465.684,-76.077c147.545,0 272.035,12.32 373.474,36.885c101.434,24.568 193.651,53.745 276.643,87.605l-96.826,534.849c-64.549,-24.639 -136.016,-43.802 -214.399,-57.635c-78.383,-13.832 -154.459,-20.748 -228.234,-20.748c-153.74,0 -255.895,43.01 -306.615,129.101c-50.717,86.02 -76.077,201.287 -76.077,345.807" id="svg_281" stroke="null"/>
      </g>
      <g id="svg_278" stroke="null">
       <path fill="#ffffff" fill-rule="nonzero" d="m3634331.922609,-2467432.774172c126.652,267.208 251.502,545.29499 374.408,834.26c122.906,288.965 239.615,574.83199 350.274,857.67401c110.658,282.76799 212.527,553.074 305.679,810.91699c93.151,257.769 175.497,488.594 247.108,692.405l-765.747,0c-60.084,-186.016 -126.723,-385.648 -199.92,-598.895c-73.195,-213.31899 -147.688,-425.918 -223.621,-637.724c-75.934,-211.87899 -149.562,-414.824 -220.74,-608.83599c-71.179,-194.084 -136.81,-361.226 -196.822,-501.42c-63.686,141.132 -130.326,308.703 -199.92,502.788c-69.594,194.085 -142.357,397.029 -218.291,608.908c-75.933,211.808 -150.57,424.405 -223.765,637.726c-73.196,213.248 -139.692,412.447 -199.488,597.453l-793.051,0c67.865,-202.801 148.553,-433.339 241.921,-691.686c93.368,-258.345 195.669,-528.797 307.048,-811.277c111.307,-282.553 228.809,-568.132 352.579,-856.736c123.698,-288.677 249.125,-567.197 376.353,-835.557l685.995,0l0,-0.00001z" id="svg_279" stroke="null"/>
      </g>
     </g>
    </g>
    <g id="svg_273" stroke="null">
     <path fill="#ffffff" fill-rule="nonzero" d="m3638356.554449,-2464237.514632l-686.989,-108.80899l0,-3086.437l687.001,0l0,3195.246l-0.012,0l0,-0.00001z" id="svg_274" stroke="null"/>
    </g>
    <g id="svg_268" stroke="null">
     <g id="svg_269" clip-path="url(#svg_270)" stroke="null">
      <g id="svg_271" stroke="null">
       <path fill="#ffffff" fill-rule="nonzero" d="m3636854.232179,-2466252.385472c0,-340.375 -275.93,-616.305 -616.305,-616.305c-340.378,0 -616.307,275.93 -616.307,616.305c0,340.375 275.929,616.30499 616.307,616.30499c340.375,0 616.305,-275.92999 616.305,-616.30499m623.352,0c0,687.55499 -557.375,1244.938 -1244.934,1244.938c-283.448,0 -544.762,-94.74301 -754.03,-254.266c-58.25,-155.531 -119.418,-315.219 -183.56,-479.125c-92.588,-236.656 -189.43,-475.43801 -290.575,-716.36701c97.679,-590.11 610.369,-1040.118 1228.165,-1040.118c687.559,0 1244.934,557.383 1244.934,1244.93801" id="svg_272" stroke="null"/>
      </g>
     </g>
    </g>
   </g>
  </g>
  <g transform="matrix(0.13192738069585952,0,0,-0.13192738069585952,11.858060752358142,1530.7765808170225) " fill="#612095" id="svg_138" stroke="null">
   <path d="m1220.84072,11461.253539c-112.23044,-3.42263 -295.67309,-22.93165 -484.24302,-50.99723c-82.60616,-12.32148 -319.31554,-52.02402 -320.73978,-53.73534c-4.55758,-5.4762 -34.75156,-244.37598 -45.00612,-354.92702c-13.10305,-142.38151 -14.5273,-171.47389 -14.5273,-314.88221c0.28485,-158.46789 2.8485,-189.61385 18.51519,-228.2896c16.52122,-40.38707 50.70309,-73.24434 95.42435,-92.41109c20.79396,-8.55658 26.20609,-9.58337 62.66674,-9.58337c31.61823,0 43.01218,1.36905 55.54552,6.503c28.76974,11.63695 49.27885,27.0388 74.0607,56.13118c41.01823,48.25912 84.88496,68.11038 157.23656,71.53302c169.76991,8.21432 290.26097,-116.02725 323.01858,-332.6799c6.26667,-41.41386 8.54546,-150.59585 4.27272,-206.0425c-6.26667,-79.40507 -23.92729,-164.62864 -45.0061,-214.59907c-31.04853,-73.92888 -79.47283,-130.40231 -133.87895,-155.38753c-30.19398,-14.0328 -53.26674,-18.82449 -92.00619,-18.48222c-39.30913,0.34226 -76.05464,10.2679 -108.5274,29.77691c-31.04852,18.82447 -46.71521,34.22633 -65.51523,65.71455c-25.92124,42.78291 -55.83037,65.71454 -95.99405,72.90207c-49.5637,9.24111 -102.83044,-15.40185 -141.28503,-65.37228c-67.79402,-87.61941 -88.01829,-222.12886 -95.70921,-628.39538c-3.70303,-188.58707 0.85455,-530.85034 9.96971,-776.25312c0.85455,-22.58938 3.41818,-93.43787 5.69698,-157.44111c5.12727,-136.56304 5.69697,-144.43511 12.2485,-146.83094c26.2061,-9.24111 180.87901,-40.0448 266.90336,-53.05081c107.9577,-16.42864 176.32143,-21.90485 263.48516,-21.90485c84.31526,0 138.72139,5.81847 164.92748,17.79768c35.89096,16.42864 64.94554,54.76213 82.03646,109.52426c28.76974,91.72655 15.38184,190.98291 -34.18186,255.67066c-22.7879,29.77692 -32.18791,47.23234 -42.15762,80.43188c-13.10305,43.46743 -17.94547,80.77413 -17.66062,139.98568c0,62.97645 6.55152,105.75936 23.92729,159.15242c27.63034,84.8813 75.76979,147.85773 143.56382,188.24481c59.5334,35.25312 109.66679,47.57459 195.12144,47.57459c199.67904,0 325.29737,-84.53903 366.60045,-246.77182c6.83637,-27.72332 7.69092,-34.91085 7.69092,-90.01525c0.28485,-69.8217 -4.27273,-96.51823 -25.06669,-148.88452c-14.81214,-37.3067 -26.49095,-55.44666 -50.1334,-77.3515c-51.27279,-47.57459 -70.64251,-122.87251 -52.41219,-201.59307c19.36973,-82.14319 83.46072,-148.54227 168.63052,-174.89653c120.49105,-36.96444 361.47316,-20.87807 703.00692,46.5478c143.27897,28.40785 380.27319,83.8545 386.25502,90.35751c1.13939,1.02679 -0.28485,21.56258 -3.41818,45.52102c-16.80609,129.37551 -45.57582,409.68914 -56.68492,553.78198c-19.93942,254.30161 -22.50306,443.91547 -7.40607,529.82356c22.50306,129.37551 97.4183,175.23879 213.06693,130.74456c57.82431,-22.24711 103.40012,-57.15796 133.0244,-102.67898c105.39407,-160.52147 261.77608,-207.41155 405.90958,-121.50346c153.81838,91.72656 246.67909,311.45958 246.39425,584.58567c-0.28485,313.85543 -87.73344,537.69562 -246.10939,630.44896c-55.26068,32.17275 -107.38801,46.20555 -174.04264,46.20555c-75.48494,0 -144.41835,-21.22033 -201.95782,-62.29192c-26.49094,-18.82448 -58.96371,-56.47344 -68.07887,-79.06282c-3.98789,-9.58337 -13.95759,-34.56858 -21.93336,-55.10439c-12.24851,-30.8037 -18.23033,-41.41385 -35.03642,-61.94965c-48.4243,-58.52702 -115.93347,-74.95566 -179.16991,-43.12518c-36.1758,18.48222 -64.66068,51.68176 -76.62433,89.33072c-14.24245,45.52102 -22.50306,170.10486 -22.50306,345.68592c0,229.31639 14.52729,506.54965 44.43642,841.6254c3.70303,44.15196 6.55152,80.43186 6.26667,81.11639c-1.13939,1.36906 -238.13363,13.69054 -361.18832,19.16675c-52.41219,2.05358 -176.03658,4.10715 -274.87912,4.10715c-268.04275,0.34226 -297.95188,-4.44942 -340.67921,-55.78891c-45.29097,-54.41987 -51.27279,-135.87852 -15.09699,-205.35796c5.69697,-10.61016 27.91518,-40.04481 49.5637,-65.37229c43.58187,-51.3395 57.82431,-76.32472 71.21221,-124.24157c11.96364,-42.44065 15.38183,-74.27113 13.38789,-130.06005c-1.1394,-35.93764 -3.41818,-57.15797 -8.54547,-81.1164c-34.4667,-159.15242 -133.87895,-286.1321 -265.47911,-338.49838c-89.44253,-35.59537 -199.67903,-36.96443 -280.57609,-3.76489c-112.51529,46.5478 -191.41842,159.83695 -214.77602,307.69468c-5.69698,35.59537 -5.98183,104.39029 -0.5697,137.9321c11.6788,71.53303 31.90307,109.86651 78.04858,149.56906c43.29703,36.96442 66.65463,70.16396 88.87284,124.92609c31.04852,75.98245 34.4667,159.49469 9.40001,215.2836c-16.52124,35.93765 -49.27885,62.63418 -87.73345,71.19077c-14.24244,3.08037 -98.55769,5.4762 -143.84865,4.10715l-0.00001,0.00001l0,0z" id="svg_188" fill="#ffffff" stroke="null"/>
  </g>
 </g>
</svg>