<svg width="620" height="600" xmlns="http://www.w3.org/2000/svg">
 <title>Artboard 3</title>

 <g>
  <title>background</title>
  <rect x="-1" y="-1" width="622" height="602" id="canvas_background" fill="none"/>
 </g>
 <g>
  <title>Layer 1</title>
  <g id="svg_9">
   <rect fill-opacity="0.7" transform="rotate(-21 249.89916992187517,127.15553283691405) " id="svg_2" height="120" width="460" y="67.155537" x="19.89917" stroke-width="4" fill="#c0a9d7"/>
   <rect fill-opacity="0.7" transform="rotate(-21 249.89916992187506,207.1555328369141) " id="svg_3" height="120" width="460" y="147.155537" x="19.89917" stroke-width="4" fill="#c0a9d7"/>
   <rect fill-opacity="0.7" transform="rotate(-21 349.8991699218752,216.15553283691406) " id="svg_4" height="120" width="460" y="156.155537" x="119.89917" stroke-width="4" fill="#c0a9d7"/>
   <rect fill-opacity="0.7" transform="rotate(-21 249.89916992187528,317.15551757812506) " id="svg_5" height="120" width="460" y="257.155537" x="19.89917" stroke-width="4" fill="#c0a9d7"/>
   <rect fill-opacity="0.7" transform="rotate(-21 349.89916992187506,337.155517578125) " id="svg_6" height="120" width="460" y="277.155537" x="119.89917" stroke-width="4" fill="#c0a9d7"/>
   <rect fill-opacity="0.7" transform="rotate(-21 249.89916992187506,427.15551757812506) " id="svg_7" height="120" width="460" y="367.155537" x="19.89917" stroke-width="4" fill="#c0a9d7"/>
   <rect fill-opacity="0.7" transform="rotate(-21 379.8991699218753,447.15551757812517) " id="svg_8" height="120" width="460" y="387.155537" x="149.89917" stroke-width="4" fill="#c0a9d7"/>
   <path stroke="null" d="m539.774004,435.029694l0,44.351244l-479.547901,0l0,-46.936294a31.908149,33.200073 0 0 1 11.545386,-25.647685a517.301827,538.246781 0 0 1 83.107351,-56.97235c1.899866,4.61253 20.314045,48.659656 32.054291,67.261834a0.974298,1.013746 0 0 0 1.753737,0c2.387021,-7.451007 11.594104,-33.301454 25.575242,-31.527401a0.92558,0.963056 0 0 0 0.779426,-1.723362c-10.571088,-8.76887 -37.364206,-31.324652 -47.545575,-43.895068l0,-30.361596a73.315689,76.284157 0 0 1 -9.10966,-26.002506c-3.507461,-0.304117 -8.086643,-5.372836 -13.055558,-23.569528c-6.381625,-23.417456 -0.389707,-28.080677 5.407339,-28.029986c-3.069024,-13.68553 -10.863384,-61.230072 23.139503,-82.822785a18.268025,19.007676 0 0 1 -6.479061,-14.445837s38.971789,4.561839 57.532109,0.557557s38.971789,11.30323 42.138248,26.053184c0,0 38.046221,0 23.285645,70.708571c5.9432,-0.25344 12.422261,4.004282 5.845776,28.029986c-4.871478,18.196692 -9.742956,23.316088 -13.055558,23.569528a73.072112,76.030717 0 0 1 -9.109647,26.002506l0,30.108156c-10.230099,12.570416 -36.974487,35.176875 -47.594305,43.895068a0.92558,0.963056 0 0 0 0.779439,1.723362c13.981125,-1.774053 23.188209,24.025704 25.57523,31.527401a0.974298,1.013746 0 0 0 1.753737,0c11.740246,-18.602177 30.154425,-62.649304 32.054303,-67.261834a544.825653,566.885014 0 0 1 57.239813,36.596107a138.252439,143.850121 0 0 0 18.02446,-7.755124l1.071722,-0.658938a10.668524,11.10048 0 0 0 4.871478,-9.326428l0,-18.906308c-48.081448,0.456176 -62.257446,-20.984478 -62.257446,-20.984478s27.47512,-0.456189 25.770102,-76.030717s31.469724,-87.790136 43.940691,-92.504034c36.292484,-14.344469 54.511791,8.464753 54.511791,8.464753c42.089543,-4.054972 53.586223,43.793687 48.714745,98.231678s23.57794,62.953434 23.57794,62.953434c-19.729478,20.984478 -61.380584,19.666614 -61.380584,19.666614l0,5.068719l0,0l0,14.445837a10.668524,11.10048 0 0 0 4.871478,9.326428l1.266581,0.810997c14.614422,7.957873 44.622705,16.219877 45.207284,16.524007a158.61519,165.037335 0 0 1 28.498124,11.201862a34.100323,35.481006 0 0 1 19.242323,28.283426z" id="svg_1" fill="#612095"/>
  </g>
 </g>
</svg>