<svg width="320" height="100" xmlns="http://www.w3.org/2000/svg">
 <metadata id="metadata40432">image/svg+xml</metadata>

 <g>
  <title>background</title>
  <rect fill="none" id="canvas_background" height="102" width="322" y="-1" x="-1"/>
 </g>
 <g>
  <title>Layer 1</title>
  <metadata id="svg_29">image/svg+xml</metadata>
  <metadata transform="matrix(0.009544589714876095,0,0,0.009544589714876095,0,0) " id="svg_19">image/svg+xml</metadata>

  <g stroke="null" id="svg_21">
   <g stroke="null" id="svg_12" transform="matrix(0.8483148163375516,0,0,0.8483148163375516,-8655.773772666262,-2688.2387701948587) ">
    <path stroke="null" fill="#cccccc" d="m10414.920187,3187.750844c11.302,-0.014 22.583001,-0.027 33.886001,-0.036c0.004999,5.125 0.009,10.268 0.013999,15.392c6.649001,-0.004 13.258,-0.013 19.913,-0.018c0.007,7.052 0.014,14.108 0.019001,21.17c-6.651,0.005 -13.263001,0.014 -19.909,0.018c0.016,15.334 0.030999,30.573 0.045,45.907c-8.362001,0.734 -18.599,1.352 -25.148001,-0.748c-3.483,-1.117 -6.431,-4.34 -7.692999,-7.688c-1.108,-2.908 -1.148001,-28.428 -1.158,-37.435c-4.546,0 -9.184001,0.005 -13.726,0.014c-0.009,-7.062 -0.014001,-14.117 -0.022001,-21.17c4.541001,-0.004 9.18,-0.009 13.726001,-0.014c-0.006,-5.062 -0.137001,-10.632 0.052999,-15.392z" id="svg_18"/>
    <path stroke="null" fill="#cccccc" d="m10272.589187,3201.363844c19.333,-1.441 40.986,4.584 45.08,18.319c0.129,0.617 0.633,3.328 0.633,3.328c0,0 0.108,37.751 0.117,47.406c-11.233,0.014 -22.48,0.021 -33.707,0.035c-0.007,-6.354 -0.013,-12.721 -0.018,-19.071c-9.448,2.787 -29.623,6.84 -16.752,19.09c-8.153,0.008 -29.727,0.08 -33.531,0.031c-4.931,-1.096 -7.841,-7.859 -6.654,-14.339c1.075,-5.895 4.81,-10.033 9.244,-12.604c10.867,-6.313 26.985,-5.962 41.037,-9.317c1.837,-0.441 3.686,-0.644 5.062,-1.58c0.84,-0.572 1.184,-1.36 1.396,-2.626c0.937,-5.701 -4.787,-7.39 -10.139,-7.331c-1.601,0.014 -3.819,0.266 -5.24,0.707c-0.991,0.297 -2.369,0.945 -3.143,1.576c-1.626,1.306 -2.617,3.166 -2.612,6.124c-10.824,0.01 -21.667,0.022 -32.488,0.032c0.387,-2.892 0.887,-5.278 1.74,-7.525c1.541,-4.062 3.589,-7.264 6.278,-10.154c7.393,-7.953 19.374,-11.038 33.697,-12.101z" id="svg_17"/>
    <path stroke="null" fill="#cccccc" d="m10384.022188,3201.598844c3.715,-0.275 6.976,0.68 9.607,1.566c0.007,7.053 0.014,14.109 0.021,21.166c-6.034,0.009 -12.568,-0.365 -16.766,1.418c-2.533,1.067 -5.075,3.558 -6.106,6.134c-1.324,3.278 -0.864,8.61 -0.86,13.118c0.009,8.443 0.016,16.915 0.027,25.368c-11.47,0.008 -22.948,0.021 -34.409,0.031c-0.022,-22.395 -0.045,-44.781 -0.068,-67.176c10.479,-0.014 21.26,-0.022 31.748,-0.036c0.004,2.635 -0.193,5.967 0.047,8.053c3.407,-5.455 8.507,-9.03 16.759,-9.642z" id="svg_16"/>
    <g stroke="null" id="svg_13">
     <g stroke="null" id="svg_14">
      <path stroke="null" fill="#cccccc" d="m10564.644188,3225.208844c-3.302,-7.35 -8.854,-13.56 -15.739,-17.302c-7.924,-4.31 -19.148,-7.223 -31.967,-6.264c-22.879,1.693 -38.545,12.235 -42.409,33.104c-1.45,7.804 -0.509,16.828 1.77,23.092c0.962,2.652 5.337,11.709 7.35,12.412c2.909,-0.158 18.735,-0.02 24.976,-0.023c-0.007,-5.607 -0.014,-11.195 -0.019,-16.797c19.785,-0.018 39.593,-0.036 59.385,-0.059c1.363,-10.19 -0.113,-20.949 -3.347,-28.163zm-57.106,10.556c0.234,-3.04 0.612,-5.197 1.738,-7.174c1.759,-3.111 4.891,-5.26 9.254,-5.71c10.745,-1.121 15.6,3.913 16.604,12.856c-9.196,0.005 -18.405,0.019 -27.596,0.028z" id="svg_15"/>
     </g>
    </g>
   </g>
  </g>
 </g>
</svg>