<svg width="512" height="512" xmlns="http://www.w3.org/2000/svg">
 <style type="text/css">@import url('https://fonts.googleapis.com/css?family=Ubuntu');</style>
 <defs>
  <rect fill="#612095" id="p" width="8" height="8"/>
 </defs>
 <g>
  <title>background</title>
  <rect fill="#ffffff" id="canvas_background" height="514" width="514" y="-1" x="-1"/>
 </g>
 <g>
  <title>Layer 1</title>
  <metadata id="svg_43">image/svg+xml</metadata>
  <defs>
   <clipPath clipPathUnits="userSpaceOnUse" id="svg_33">
    <path d="m754311.48755,-498528.47577l7824.54299,0l0,-3259.811l-7824.54299,0l0,3259.811z" id="svg_39"/>
   </clipPath>
   <clipPath clipPathUnits="userSpaceOnUse" id="svg_26">
    <path d="m754311.48755,-498528.47577l7824.54299,0l0,-3259.811l-7824.54299,0l0,3259.811z" id="svg_38"/>
   </clipPath>
  </defs>
  <rect fill="#612095" stroke-width="1.5" stroke-opacity="null" fill-opacity="null" x="-184.500864" y="-99.000514" width="923.998553" height="671.846978" id="svg_328" stroke="null"/>
  <g id="svg_55" stroke="null">
   <g id="svg_23" transform="matrix(0.05158428096091114,0,0,-0.05158428096091114,-38848.89718797247,-25653.261964779864) " stroke="null">
    <g id="svg_31" stroke="null">
     <g id="svg_32" clip-path="url(#svg_33)" stroke="null">
      <g id="svg_36" stroke="null">
       <path fill="#ffffff" fill-rule="nonzero" d="m761213.87915,-500723.20279l0,852.991l631.64099,0l0,571.734l-631.64099,0l0,770.002l-687.00301,-108.812l0,-2095.136c0,-156.766 14.554,-299.7 43.804,-428.801c29.176,-129.101 80.686,-239.039 154.45901,-329.669c73.772,-90.703 172.11,-161.377 295.08999,-212.096c122.904,-50.718 278.15801,-76.077 465.684,-76.077c147.54501,0 272.03501,12.32 373.47401,36.885c101.434,24.568 193.65099,53.745 276.643,87.605l-96.826,534.849c-64.549,-24.639 -136.016,-43.802 -214.399,-57.635c-78.383,-13.832 -154.459,-20.748 -228.234,-20.748c-153.74,0 -255.895,43.01 -306.615,129.101c-50.717,86.02 -76.077,201.287 -76.077,345.807" id="svg_37" stroke="null"/>
      </g>
      <g id="svg_34" stroke="null">
       <path fill="#ffffff" fill-rule="nonzero" d="m756275.38305,-501723.73797c126.652,267.208 251.502,545.295 374.40801,834.26c122.90599,288.965 239.615,574.832 350.274,857.674c110.658,282.768 212.527,553.074 305.679,810.917c93.15099,257.769 175.49699,488.594 247.108,692.405l-765.747,0c-60.084,-186.016 -126.723,-385.648 -199.92,-598.895c-73.195,-213.319 -147.688,-425.918 -223.62101,-637.724c-75.934,-211.879 -149.562,-414.824 -220.74,-608.836c-71.179,-194.084 -136.81,-361.226 -196.822,-501.42c-63.686,141.132 -130.326,308.703 -199.92,502.788c-69.594,194.085 -142.357,397.029 -218.291,608.908c-75.933,211.808 -150.57,424.405 -223.765,637.726c-73.196,213.248 -139.692,412.447 -199.488,597.453l-793.051,0c67.865,-202.801 148.553,-433.339 241.921,-691.686c93.368,-258.345 195.669,-528.797 307.048,-811.277c111.307,-282.553 228.809,-568.132 352.579,-856.736c123.698,-288.677 249.125,-567.197 376.353,-835.557l685.995,0z" id="svg_35" stroke="null"/>
      </g>
     </g>
    </g>
    <g id="svg_29" stroke="null">
     <path fill="#ffffff" fill-rule="nonzero" d="m760300.01488,-498528.47842l-686.98899,-108.809l0,-3086.437l687.00101,0l0,3195.246l-0.012,0l-0.00001,0l-0.00001,0z" id="svg_30" stroke="null"/>
    </g>
    <g id="svg_24" stroke="null">
     <g id="svg_25" clip-path="url(#svg_26)" stroke="null">
      <g id="svg_27" stroke="null">
       <path fill="#ffffff" fill-rule="nonzero" d="m758797.69263,-500543.34927c0,-340.375 -275.93001,-616.305 -616.30501,-616.305c-340.378,0 -616.307,275.93 -616.307,616.305c0,340.375 275.929,616.305 616.307,616.305c340.375,0 616.30501,-275.93 616.30501,-616.305m623.35199,0c0,687.555 -557.375,1244.938 -1244.934,1244.938c-283.448,0 -544.762,-94.743 -754.03,-254.266c-58.25,-155.531 -119.418,-315.219 -183.56,-479.125c-92.588,-236.656 -189.43,-475.438 -290.575,-716.367c97.679,-590.11 610.369,-1040.118 1228.165,-1040.118c687.559,0 1244.934,557.383 1244.934,1244.938" id="svg_28" stroke="null"/>
      </g>
     </g>
    </g>
   </g>
  </g>
  <rect fill="#ffffff" stroke-width="1.5" stroke-opacity="null" x="214.942624" y="334.509416" width="224.00038" height="102.00018" id="svg_1" transform="matrix(0.6857127293841102,-0.26322045517653264,0.26322045517653264,0.6857127293841102,-118.67635734129308,140.63828294600256) " stroke="null"/>
  <rect fill="#ffffff" stroke-width="1.5" stroke-opacity="null" x="280.942734" y="346.509436" width="224.00038" height="102.00018" id="svg_2" transform="matrix(0.6857127293841102,-0.26322045517653264,0.26322045517653264,0.6857127293841102,-118.61518501546298,158.59628545228327) " stroke="null"/>
  <rect fill="#ffffff" stroke-width="1.5" stroke-opacity="null" x="378.942904" y="338.509426" width="224.00038" height="102.00018" id="svg_3" transform="matrix(0.6857127293841102,-0.26322045517653264,0.26322045517653264,0.6857127293841102,-111.72847376469323,184.00169016594063) " stroke="null"/>
  <text transform="matrix(1.5551363652645454,0,0,1.5551363652645454,-481.0915842434001,-424.3309626886597) " font-weight="bold" fill="#612095" stroke-width="0" stroke-opacity="null" x="444.541916" y="493.408305" id="svg_6" font-size="36" font-family="Ubuntu" text-anchor="start" xml:space="preserve" stroke="null">Lille</text>
  <text style="cursor: move;" transform="matrix(1.5551363652645454,0,0,1.5551363652645454,-481.0915842434001,-424.3309626886597) " font-weight="bold" fill="#ffffff" stroke-width="0" stroke-opacity="null" x="373.474167" y="566.7142" id="svg_5" font-size="36" font-family="Ubuntu" text-anchor="start" xml:space="preserve" stroke="null">Bulletin #33</text>
 </g>
</svg>